<svg xmlns="http://www.w3.org/2000/svg" viewBox="0 0 100 100" width="512" height="512" role="img" aria-label="Kadr">
  <path fill="currentColor" fill-rule="evenodd" d="M 92 50 C 92 88.18, 88.18 92, 50 92 C 11.82 92, 8 88.18, 8 50 C 8 11.82, 11.82 8, 50 8 C 88.18 8, 92 11.82, 92 50 Z M 75.75 53.03 L 48.75 68.62 A 3.5 3.5 0 0 1 43.5 65.59 L 43.5 34.41 A 3.5 3.5 0 0 1 48.75 31.38 L 75.75 46.97 A 3.5 3.5 0 0 1 75.75 53.03 Z M 13 25.5 A 3.5 3.5 0 0 1 20 25.5 L 20 31.5 A 3.5 3.5 0 0 1 13 31.5 Z M 13 47 A 3.5 3.5 0 0 1 20 47 L 20 53 A 3.5 3.5 0 0 1 13 53 Z M 13 68.5 A 3.5 3.5 0 0 1 20 68.5 L 20 74.5 A 3.5 3.5 0 0 1 13 74.5 Z"/>
</svg>
