<svg xmlns="http://www.w3.org/2000/svg" viewBox="0 0 100 100" width="512" height="512" role="img" aria-label="Kadr">
  <path fill="currentColor" fill-rule="evenodd" d="M 92 50 C 92 88.18, 88.18 92, 50 92 C 11.82 92, 8 88.18, 8 50 C 8 11.82, 11.82 8, 50 8 C 88.18 8, 92 11.82, 92 50 Z M 67.15 52.51 L 47.35 63.94 A 2.9 2.9 0 0 1 43 61.43 L 43 38.57 A 2.9 2.9 0 0 1 47.35 36.06 L 67.15 47.49 A 2.9 2.9 0 0 1 67.15 52.51 Z M 29 12 L 35 12 A 3 3 0 0 1 35 18 L 29 18 A 3 3 0 0 1 29 12 Z M 47 12 L 53 12 A 3 3 0 0 1 53 18 L 47 18 A 3 3 0 0 1 47 12 Z M 65 12 L 71 12 A 3 3 0 0 1 71 18 L 65 18 A 3 3 0 0 1 65 12 Z M 29 82 L 35 82 A 3 3 0 0 1 35 88 L 29 88 A 3 3 0 0 1 29 82 Z M 47 82 L 53 82 A 3 3 0 0 1 53 88 L 47 88 A 3 3 0 0 1 47 82 Z M 65 82 L 71 82 A 3 3 0 0 1 71 88 L 65 88 A 3 3 0 0 1 65 82 Z"/>
</svg>
