<svg xmlns="http://www.w3.org/2000/svg" viewBox="0 0 100 100" width="512" height="512" role="img" aria-label="Kadr">
  <path fill="currentColor" fill-rule="evenodd" d="M 92 50 C 92 88.18, 88.18 92, 50 92 C 11.82 92, 8 88.18, 8 50 C 8 11.82, 11.82 8, 50 8 C 88.18 8, 92 11.82, 92 50 Z M 87 50 C 87 83.64, 83.64 87, 50 87 C 16.36 87, 13 83.64, 13 50 C 13 16.36, 16.36 13, 50 13 C 83.64 13, 87 16.36, 87 50 Z"/>
  <path fill="currentColor" fill-rule="evenodd" d="M 67.1 52.25 L 49.4 62.47 A 2.6 2.6 0 0 1 45.5 60.22 L 45.5 39.78 A 2.6 2.6 0 0 1 49.4 37.53 L 67.1 47.75 A 2.6 2.6 0 0 1 67.1 52.25 Z"/>
</svg>
