<svg xmlns="http://www.w3.org/2000/svg" viewBox="0 0 100 100" width="512" height="512" role="img" aria-label="Kadr">
  <path fill="currentColor" fill-rule="evenodd" d="M 92 50 C 92 88.18, 88.18 92, 50 92 C 11.82 92, 8 88.18, 8 50 C 8 11.82, 11.82 8, 50 8 C 88.18 8, 92 11.82, 92 50 Z M 87 50 C 87 83.64, 83.64 87, 50 87 C 16.36 87, 13 83.64, 13 50 C 13 16.36, 16.36 13, 50 13 C 83.64 13, 87 16.36, 87 50 Z"/>
  <path fill="currentColor" fill-rule="evenodd" d="M 68.2 52.77 L 47.8 64.55 A 3.2 3.2 0 0 1 43 61.78 L 43 38.22 A 3.2 3.2 0 0 1 47.8 35.45 L 68.2 47.23 A 3.2 3.2 0 0 1 68.2 52.77 Z M 62 51.56 L 48.65 59.27 A 1.8 1.8 0 0 1 45.95 57.71 L 45.95 42.29 A 1.8 1.8 0 0 1 48.65 40.73 L 62 48.44 A 1.8 1.8 0 0 1 62 51.56 Z"/>
</svg>
