<svg xmlns="http://www.w3.org/2000/svg" viewBox="0 0 100 100" width="512" height="512" role="img" aria-label="Kadr">
  <path fill="currentColor" fill-rule="evenodd" d="M 92 50 C 92 88.18, 88.18 92, 50 92 C 11.82 92, 8 88.18, 8 50 C 8 11.82, 11.82 8, 50 8 C 88.18 8, 92 11.82, 92 50 Z M 87 50 C 87 83.64, 83.64 87, 50 87 C 16.36 87, 13 83.64, 13 50 C 13 16.36, 16.36 13, 50 13 C 83.64 13, 87 16.36, 87 50 Z M 33 10 L 39 10 A 2.5 2.5 0 0 1 39 15 L 33 15 A 2.5 2.5 0 0 1 33 10 Z M 47 10 L 53 10 A 2.5 2.5 0 0 1 53 15 L 47 15 A 2.5 2.5 0 0 1 47 10 Z M 61 10 L 67 10 A 2.5 2.5 0 0 1 67 15 L 61 15 A 2.5 2.5 0 0 1 61 10 Z M 33 85 L 39 85 A 2.5 2.5 0 0 1 39 90 L 33 90 A 2.5 2.5 0 0 1 33 85 Z M 47 85 L 53 85 A 2.5 2.5 0 0 1 53 90 L 47 90 A 2.5 2.5 0 0 1 47 85 Z M 61 85 L 67 85 A 2.5 2.5 0 0 1 67 90 L 61 90 A 2.5 2.5 0 0 1 61 85 Z"/>
  <path fill="currentColor" fill-rule="evenodd" d="M 64.4 52.08 L 49.1 60.91 A 2.4 2.4 0 0 1 45.5 58.83 L 45.5 41.17 A 2.4 2.4 0 0 1 49.1 39.09 L 64.4 47.92 A 2.4 2.4 0 0 1 64.4 52.08 Z"/>
</svg>
